<svg width="1644" height="966" xmlns="http://www.w3.org/2000/svg" xmlns:xlink="http://www.w3.org/1999/xlink" xml:space="preserve" overflow="hidden"><defs><clipPath id="clip0"><rect x="2039" y="1154" width="1644" height="966"/></clipPath><clipPath id="clip1"><rect x="2040" y="1155" width="1641" height="962"/></clipPath><clipPath id="clip2"><rect x="2040" y="1155" width="1641" height="962"/></clipPath><clipPath id="clip3"><rect x="2181" y="1324" width="1453" height="690"/></clipPath><clipPath id="clip4"><rect x="2040" y="1155" width="1641" height="962"/></clipPath><clipPath id="clip5"><rect x="2040" y="1155" width="1641" height="962"/></clipPath><clipPath id="clip6"><rect x="2040" y="1155" width="1641" height="962"/></clipPath><clipPath id="clip7"><rect x="2040" y="1155" width="1641" height="962"/></clipPath><clipPath id="clip8"><rect x="2040" y="1155" width="1641" height="962"/></clipPath><clipPath id="clip9"><rect x="2040" y="1155" width="1641" height="962"/></clipPath><clipPath id="clip10"><rect x="2040" y="1155" width="1641" height="962"/></clipPath><clipPath id="clip11"><rect x="2040" y="1155" width="1641" height="962"/></clipPath><clipPath id="clip12"><rect x="2040" y="1155" width="1641" height="962"/></clipPath><clipPath id="clip13"><rect x="2040" y="1155" width="1641" height="962"/></clipPath><clipPath id="clip14"><rect x="2040" y="1155" width="1641" height="962"/></clipPath><clipPath id="clip15"><rect x="2040" y="1155" width="1641" height="962"/></clipPath><clipPath id="clip16"><rect x="2040" y="1155" width="1641" height="962"/></clipPath><clipPath id="clip17"><rect x="2040" y="1155" width="1641" height="962"/></clipPath><clipPath id="clip18"><rect x="2040" y="1155" width="1641" height="962"/></clipPath><clipPath id="clip19"><rect x="2040" y="1155" width="1641" height="962"/></clipPath><clipPath id="clip20"><rect x="2040" y="1155" width="1641" height="962"/></clipPath><clipPath id="clip21"><rect x="2040" y="1155" width="1641" height="962"/></clipPath><clipPath id="clip22"><rect x="2040" y="1155" width="1641" height="962"/></clipPath><clipPath id="clip23"><rect x="2040" y="1155" width="1641" height="962"/></clipPath><clipPath id="clip24"><rect x="2040" y="1155" width="1641" height="962"/></clipPath><clipPath id="clip25"><rect x="2040" y="1155" width="1641" height="962"/></clipPath><clipPath id="clip26"><rect x="2040" y="1155" width="1641" height="962"/></clipPath><clipPath id="clip27"><rect x="2040" y="1155" width="1641" height="962"/></clipPath><clipPath id="clip28"><rect x="2040" y="1155" width="1641" height="962"/></clipPath><clipPath id="clip29"><rect x="2040" y="1155" width="1641" height="962"/></clipPath><clipPath id="clip30"><rect x="2040" y="1155" width="1641" height="962"/></clipPath><clipPath id="clip31"><rect x="2040" y="1155" width="1641" height="962"/></clipPath><clipPath id="clip32"><rect x="2040" y="1155" width="1641" height="962"/></clipPath><clipPath id="clip33"><rect x="2040" y="1155" width="1641" height="962"/></clipPath><clipPath id="clip34"><rect x="2040" y="1155" width="1641" height="962"/></clipPath><clipPath id="clip35"><rect x="2040" y="1155" width="1641" height="962"/></clipPath><clipPath id="clip36"><rect x="2040" y="1155" width="1641" height="962"/></clipPath><clipPath id="clip37"><rect x="2040" y="1155" width="1641" height="962"/></clipPath><clipPath id="clip38"><rect x="2040" y="1155" width="1641" height="962"/></clipPath></defs><g clip-path="url(#clip0)" transform="translate(-2039 -1154)"><rect x="2040" y="1155" width="1641" height="963" fill="#FFFFFF"/><g clip-path="url(#clip1)"><path d="M2181.5 1896.56 3630.5 1896.56M2181.5 1782.56 3630.5 1782.56M2181.5 1668.55 3630.5 1668.55M2181.5 1553.55 3630.5 1553.55M2181.5 1439.55 3630.5 1439.55M2181.5 1324.5 3630.5 1324.5" stroke="#D9D9D9" stroke-width="3.4375" stroke-linejoin="round" stroke-miterlimit="10" fill="none"/></g><g clip-path="url(#clip2)"><path d="M2181.5 2011.5 3630.5 2011.5" stroke="#D9D9D9" stroke-width="3.4375" stroke-linejoin="round" stroke-miterlimit="10" fill="none" fill-rule="evenodd"/></g><g clip-path="url(#clip3)"><path d="M2209 1868.06 2265.07 1999.07 2320.08 2001.07 2376.08 1388 2432.08 1795.06 2488.08 1840.06 2543.08 1910.06 2599.09 1463.05 2655.09 1822.06 2711.09 1848.06 2767.09 2009.07 2822.09 2008.07 2878.09 1785.06 2934.1 1807.06 2990.1 1703.06 3045.1 1692.06 3101.1 1760.06 3157.1 2011 3213.11 1833.06 3268.11 1552.05 3324.11 1673.05 3380.11 1805.06 3436.11 1684.06 3491.11 1810.06 3547.12 1879.06 3603 1629.05" stroke="#4472C4" stroke-width="10.3125" stroke-linecap="round" stroke-linejoin="round" stroke-miterlimit="10" fill="none"/></g><g clip-path="url(#clip4)"><path d="M2220.58 1868.5C2220.58 1874.57 2215.66 1879.5 2209.58 1879.5 2203.51 1879.5 2198.58 1874.57 2198.58 1868.5 2198.58 1862.43 2203.51 1857.5 2209.58 1857.5 2215.66 1857.5 2220.58 1862.43 2220.58 1868.5Z" stroke="#4472C4" stroke-width="3.4375" stroke-linejoin="round" stroke-miterlimit="10" fill="#4472C4"/><path d="M2275.58 1998.5C2275.58 2004.57 2270.66 2009.5 2264.58 2009.5 2258.51 2009.5 2253.58 2004.57 2253.58 1998.5 2253.58 1992.43 2258.51 1987.5 2264.58 1987.5 2270.66 1987.5 2275.58 1992.43 2275.58 1998.5Z" stroke="#4472C4" stroke-width="3.4375" stroke-linejoin="round" stroke-miterlimit="10" fill="#4472C4"/><path d="M2331.58 2001.5C2331.58 2007.58 2326.66 2012.5 2320.58 2012.5 2314.51 2012.5 2309.58 2007.58 2309.58 2001.5 2309.58 1995.43 2314.51 1990.5 2320.58 1990.5 2326.66 1990.5 2331.58 1995.43 2331.58 2001.5Z" stroke="#4472C4" stroke-width="3.4375" stroke-linejoin="round" stroke-miterlimit="10" fill="#4472C4"/><path d="M2387.58 1387.5C2387.58 1393.57 2382.66 1398.5 2376.58 1398.5 2370.51 1398.5 2365.58 1393.57 2365.58 1387.5 2365.58 1381.42 2370.51 1376.5 2376.58 1376.5 2382.66 1376.5 2387.58 1381.42 2387.58 1387.5Z" stroke="#4472C4" stroke-width="3.4375" stroke-linejoin="round" stroke-miterlimit="10" fill="#4472C4"/><path d="M2443.58 1795.5C2443.58 1801.57 2438.66 1806.5 2432.58 1806.5 2426.51 1806.5 2421.58 1801.57 2421.58 1795.5 2421.58 1789.43 2426.51 1784.5 2432.58 1784.5 2438.66 1784.5 2443.58 1789.43 2443.58 1795.5Z" stroke="#4472C4" stroke-width="3.4375" stroke-linejoin="round" stroke-miterlimit="10" fill="#4472C4"/><path d="M2498.58 1839.5C2498.58 1845.57 2493.66 1850.5 2487.58 1850.5 2481.51 1850.5 2476.58 1845.57 2476.58 1839.5 2476.58 1833.43 2481.51 1828.5 2487.58 1828.5 2493.66 1828.5 2498.58 1833.43 2498.58 1839.5Z" stroke="#4472C4" stroke-width="3.4375" stroke-linejoin="round" stroke-miterlimit="10" fill="#4472C4"/><path d="M2554.58 1909.5C2554.58 1915.57 2549.66 1920.5 2543.58 1920.5 2537.51 1920.5 2532.58 1915.57 2532.58 1909.5 2532.58 1903.43 2537.51 1898.5 2543.58 1898.5 2549.66 1898.5 2554.58 1903.43 2554.58 1909.5Z" stroke="#4472C4" stroke-width="3.4375" stroke-linejoin="round" stroke-miterlimit="10" fill="#4472C4"/><path d="M2610.58 1462.5C2610.58 1468.58 2605.66 1473.5 2599.58 1473.5 2593.51 1473.5 2588.58 1468.58 2588.58 1462.5 2588.58 1456.43 2593.51 1451.5 2599.58 1451.5 2605.66 1451.5 2610.58 1456.43 2610.58 1462.5Z" stroke="#4472C4" stroke-width="3.4375" stroke-linejoin="round" stroke-miterlimit="10" fill="#4472C4"/><path d="M2666.58 1822.5C2666.58 1828.57 2661.66 1833.5 2655.58 1833.5 2649.51 1833.5 2644.58 1828.57 2644.58 1822.5 2644.58 1816.43 2649.51 1811.5 2655.58 1811.5 2661.66 1811.5 2666.58 1816.43 2666.58 1822.5Z" stroke="#4472C4" stroke-width="3.4375" stroke-linejoin="round" stroke-miterlimit="10" fill="#4472C4"/><path d="M2721.58 1847.5C2721.58 1853.58 2716.66 1858.5 2710.58 1858.5 2704.51 1858.5 2699.58 1853.58 2699.58 1847.5 2699.58 1841.43 2704.51 1836.5 2710.58 1836.5 2716.66 1836.5 2721.58 1841.43 2721.58 1847.5Z" stroke="#4472C4" stroke-width="3.4375" stroke-linejoin="round" stroke-miterlimit="10" fill="#4472C4"/><path d="M2777.58 2009.5C2777.58 2015.57 2772.66 2020.5 2766.58 2020.5 2760.51 2020.5 2755.58 2015.57 2755.58 2009.5 2755.58 2003.43 2760.51 1998.5 2766.58 1998.5 2772.66 1998.5 2777.58 2003.43 2777.58 2009.5Z" stroke="#4472C4" stroke-width="3.4375" stroke-linejoin="round" stroke-miterlimit="10" fill="#4472C4"/><path d="M2833.58 2008.5C2833.58 2014.57 2828.66 2019.5 2822.58 2019.5 2816.51 2019.5 2811.58 2014.57 2811.58 2008.5 2811.58 2002.43 2816.51 1997.5 2822.58 1997.5 2828.66 1997.5 2833.58 2002.43 2833.58 2008.5Z" stroke="#4472C4" stroke-width="3.4375" stroke-linejoin="round" stroke-miterlimit="10" fill="#4472C4"/><path d="M2889.58 1785.5C2889.58 1791.57 2884.66 1796.5 2878.58 1796.5 2872.51 1796.5 2867.58 1791.57 2867.58 1785.5 2867.58 1779.43 2872.51 1774.5 2878.58 1774.5 2884.66 1774.5 2889.58 1779.43 2889.58 1785.5Z" stroke="#4472C4" stroke-width="3.4375" stroke-linejoin="round" stroke-miterlimit="10" fill="#4472C4"/><path d="M2944.58 1806.5C2944.58 1812.57 2939.66 1817.5 2933.58 1817.5 2927.51 1817.5 2922.58 1812.57 2922.58 1806.5 2922.58 1800.43 2927.51 1795.5 2933.58 1795.5 2939.66 1795.5 2944.58 1800.43 2944.58 1806.5Z" stroke="#4472C4" stroke-width="3.4375" stroke-linejoin="round" stroke-miterlimit="10" fill="#4472C4"/><path d="M3000.58 1703.5C3000.58 1709.57 2995.66 1714.5 2989.58 1714.5 2983.51 1714.5 2978.58 1709.57 2978.58 1703.5 2978.58 1697.43 2983.51 1692.5 2989.58 1692.5 2995.66 1692.5 3000.58 1697.43 3000.58 1703.5Z" stroke="#4472C4" stroke-width="3.4375" stroke-linejoin="round" stroke-miterlimit="10" fill="#4472C4"/><path d="M3056.58 1691.5C3056.58 1697.57 3051.66 1702.5 3045.58 1702.5 3039.51 1702.5 3034.58 1697.57 3034.58 1691.5 3034.58 1685.43 3039.51 1680.5 3045.58 1680.5 3051.66 1680.5 3056.58 1685.43 3056.58 1691.5Z" stroke="#4472C4" stroke-width="3.4375" stroke-linejoin="round" stroke-miterlimit="10" fill="#4472C4"/><path d="M3112.58 1759.5C3112.58 1765.58 3107.66 1770.5 3101.58 1770.5 3095.51 1770.5 3090.58 1765.58 3090.58 1759.5 3090.58 1753.43 3095.51 1748.5 3101.58 1748.5 3107.66 1748.5 3112.58 1753.43 3112.58 1759.5Z" stroke="#4472C4" stroke-width="3.4375" stroke-linejoin="round" stroke-miterlimit="10" fill="#4472C4"/><path d="M3167.58 2011.5C3167.58 2017.57 3162.66 2022.5 3156.58 2022.5 3150.51 2022.5 3145.58 2017.57 3145.58 2011.5 3145.58 2005.43 3150.51 2000.5 3156.58 2000.5 3162.66 2000.5 3167.58 2005.43 3167.58 2011.5Z" stroke="#4472C4" stroke-width="3.4375" stroke-linejoin="round" stroke-miterlimit="10" fill="#4472C4"/><path d="M3223.58 1833.5C3223.58 1839.57 3218.66 1844.5 3212.58 1844.5 3206.51 1844.5 3201.58 1839.57 3201.58 1833.5 3201.58 1827.43 3206.51 1822.5 3212.58 1822.5 3218.66 1822.5 3223.58 1827.43 3223.58 1833.5Z" stroke="#4472C4" stroke-width="3.4375" stroke-linejoin="round" stroke-miterlimit="10" fill="#4472C4"/><path d="M3279.58 1552.5C3279.58 1558.57 3274.66 1563.5 3268.58 1563.5 3262.51 1563.5 3257.58 1558.57 3257.58 1552.5 3257.58 1546.42 3262.51 1541.5 3268.58 1541.5 3274.66 1541.5 3279.58 1546.42 3279.58 1552.5Z" stroke="#4472C4" stroke-width="3.4375" stroke-linejoin="round" stroke-miterlimit="10" fill="#4472C4"/><path d="M3335.58 1672.5C3335.58 1678.58 3330.66 1683.5 3324.58 1683.5 3318.51 1683.5 3313.58 1678.58 3313.58 1672.5 3313.58 1666.43 3318.51 1661.5 3324.58 1661.5 3330.66 1661.5 3335.58 1666.43 3335.58 1672.5Z" stroke="#4472C4" stroke-width="3.4375" stroke-linejoin="round" stroke-miterlimit="10" fill="#4472C4"/><path d="M3390.58 1805.5C3390.58 1811.57 3385.66 1816.5 3379.58 1816.5 3373.51 1816.5 3368.58 1811.57 3368.58 1805.5 3368.58 1799.42 3373.51 1794.5 3379.58 1794.5 3385.66 1794.5 3390.58 1799.42 3390.58 1805.5Z" stroke="#4472C4" stroke-width="3.4375" stroke-linejoin="round" stroke-miterlimit="10" fill="#4472C4"/><path d="M3446.58 1684.5C3446.58 1690.57 3441.66 1695.5 3435.58 1695.5 3429.51 1695.5 3424.58 1690.57 3424.58 1684.5 3424.58 1678.42 3429.51 1673.5 3435.58 1673.5 3441.66 1673.5 3446.58 1678.42 3446.58 1684.5Z" stroke="#4472C4" stroke-width="3.4375" stroke-linejoin="round" stroke-miterlimit="10" fill="#4472C4"/><path d="M3502.58 1809.5C3502.58 1815.57 3497.66 1820.5 3491.58 1820.5 3485.51 1820.5 3480.58 1815.57 3480.58 1809.5 3480.58 1803.43 3485.51 1798.5 3491.58 1798.5 3497.66 1798.5 3502.58 1803.43 3502.58 1809.5Z" stroke="#4472C4" stroke-width="3.4375" stroke-linejoin="round" stroke-miterlimit="10" fill="#4472C4"/><path d="M3558.58 1879.5C3558.58 1885.57 3553.66 1890.5 3547.58 1890.5 3541.51 1890.5 3536.58 1885.57 3536.58 1879.5 3536.58 1873.43 3541.51 1868.5 3547.58 1868.5 3553.66 1868.5 3558.58 1873.43 3558.58 1879.5Z" stroke="#4472C4" stroke-width="3.4375" stroke-linejoin="round" stroke-miterlimit="10" fill="#4472C4"/><path d="M3614.58 1628.5C3614.58 1634.58 3609.66 1639.5 3603.58 1639.5 3597.51 1639.5 3592.58 1634.58 3592.58 1628.5 3592.58 1622.43 3597.51 1617.5 3603.58 1617.5 3609.66 1617.5 3614.58 1622.43 3614.58 1628.5Z" stroke="#4472C4" stroke-width="3.4375" stroke-linejoin="round" stroke-miterlimit="10" fill="#4472C4"/></g><g clip-path="url(#clip5)"><text fill="#595959" font-family="Calibri,Calibri_MSFontService,sans-serif" font-weight="400" font-size="41" transform="matrix(1 0 0 1 2121.97 2023)">0</text></g><g clip-path="url(#clip6)"><text fill="#595959" font-family="Calibri,Calibri_MSFontService,sans-serif" font-weight="400" font-size="41" transform="matrix(1 0 0 1 2069.88 1909)">0,02</text></g><g clip-path="url(#clip7)"><text fill="#595959" font-family="Calibri,Calibri_MSFontService,sans-serif" font-weight="400" font-size="41" transform="matrix(1 0 0 1 2069.88 1794)">0,04</text></g><g clip-path="url(#clip8)"><text fill="#595959" font-family="Calibri,Calibri_MSFontService,sans-serif" font-weight="400" font-size="41" transform="matrix(1 0 0 1 2069.88 1680)">0,06</text></g><g clip-path="url(#clip9)"><text fill="#595959" font-family="Calibri,Calibri_MSFontService,sans-serif" font-weight="400" font-size="41" transform="matrix(1 0 0 1 2069.88 1565)">0,08</text></g><g clip-path="url(#clip10)"><text fill="#595959" font-family="Calibri,Calibri_MSFontService,sans-serif" font-weight="400" font-size="41" transform="matrix(1 0 0 1 2090.78 1451)">0,1</text></g><g clip-path="url(#clip11)"><text fill="#595959" font-family="Calibri,Calibri_MSFontService,sans-serif" font-weight="400" font-size="41" transform="matrix(1 0 0 1 2069.88 1337)">0,12</text></g><g clip-path="url(#clip12)"><text fill="#595959" font-family="Calibri,Calibri_MSFontService,sans-serif" font-weight="400" font-size="41" transform="matrix(1 0 0 1 2197.07 2077)">A</text></g><g clip-path="url(#clip13)"><text fill="#595959" font-family="Calibri,Calibri_MSFontService,sans-serif" font-weight="400" font-size="41" transform="matrix(1 0 0 1 2253.55 2077)">B</text></g><g clip-path="url(#clip14)"><text fill="#595959" font-family="Calibri,Calibri_MSFontService,sans-serif" font-weight="400" font-size="41" transform="matrix(1 0 0 1 2309.53 2077)">C</text></g><g clip-path="url(#clip15)"><text fill="#595959" font-family="Calibri,Calibri_MSFontService,sans-serif" font-weight="400" font-size="41" transform="matrix(1 0 0 1 2363.61 2077)">D</text></g><g clip-path="url(#clip16)"><text fill="#595959" font-family="Calibri,Calibri_MSFontService,sans-serif" font-weight="400" font-size="41" transform="matrix(1 0 0 1 2421.98 2077)">E</text></g><g clip-path="url(#clip17)"><text fill="#595959" font-family="Calibri,Calibri_MSFontService,sans-serif" font-weight="400" font-size="41" transform="matrix(1 0 0 1 2478.34 2077)">F</text></g><g clip-path="url(#clip18)"><text fill="#595959" font-family="Calibri,Calibri_MSFontService,sans-serif" font-weight="400" font-size="41" transform="matrix(1 0 0 1 2530.55 2077)">G</text></g><g clip-path="url(#clip19)"><text fill="#595959" font-family="Calibri,Calibri_MSFontService,sans-serif" font-weight="400" font-size="41" transform="matrix(1 0 0 1 2586.49 2077)">H</text></g><g clip-path="url(#clip20)"><text fill="#595959" font-family="Calibri,Calibri_MSFontService,sans-serif" font-weight="400" font-size="41" transform="matrix(1 0 0 1 2649.89 2077)">I</text></g><g clip-path="url(#clip21)"><text fill="#595959" font-family="Calibri,Calibri_MSFontService,sans-serif" font-weight="400" font-size="41" transform="matrix(1 0 0 1 2704.27 2077)">J</text></g><g clip-path="url(#clip22)"><text fill="#595959" font-family="Calibri,Calibri_MSFontService,sans-serif" font-weight="400" font-size="41" transform="matrix(1 0 0 1 2755.9 2077)">K</text></g><g clip-path="url(#clip23)"><text fill="#595959" font-family="Calibri,Calibri_MSFontService,sans-serif" font-weight="400" font-size="41" transform="matrix(1 0 0 1 2813.7 2077)">L</text></g><g clip-path="url(#clip24)"><text fill="#595959" font-family="Calibri,Calibri_MSFontService,sans-serif" font-weight="400" font-size="41" transform="matrix(1 0 0 1 2860.49 2077)">M</text></g><g clip-path="url(#clip25)"><text fill="#595959" font-family="Calibri,Calibri_MSFontService,sans-serif" font-weight="400" font-size="41" transform="matrix(1 0 0 1 2920.57 2077)">N</text></g><g clip-path="url(#clip26)"><text fill="#595959" font-family="Calibri,Calibri_MSFontService,sans-serif" font-weight="400" font-size="41" transform="matrix(1 0 0 1 2975.99 2077)">O</text></g><g clip-path="url(#clip27)"><text fill="#595959" font-family="Calibri,Calibri_MSFontService,sans-serif" font-weight="400" font-size="41" transform="matrix(1 0 0 1 3034.75 2077)">P</text></g><g clip-path="url(#clip28)"><text fill="#595959" font-family="Calibri,Calibri_MSFontService,sans-serif" font-weight="400" font-size="41" transform="matrix(1 0 0 1 3087.29 2077)">Q</text></g><g clip-path="url(#clip29)"><text fill="#595959" font-family="Calibri,Calibri_MSFontService,sans-serif" font-weight="400" font-size="41" transform="matrix(1 0 0 1 3145.73 2077)">R</text></g><g clip-path="url(#clip30)"><text fill="#595959" font-family="Calibri,Calibri_MSFontService,sans-serif" font-weight="400" font-size="41" transform="matrix(1 0 0 1 3203.21 2077)">S</text></g><g clip-path="url(#clip31)"><text fill="#595959" font-family="Calibri,Calibri_MSFontService,sans-serif" font-weight="400" font-size="41" transform="matrix(1 0 0 1 3258.4 2077)">T</text></g><g clip-path="url(#clip32)"><text fill="#595959" font-family="Calibri,Calibri_MSFontService,sans-serif" font-weight="400" font-size="41" transform="matrix(1 0 0 1 3310.97 2077)">U</text></g><g clip-path="url(#clip33)"><text fill="#595959" font-family="Calibri,Calibri_MSFontService,sans-serif" font-weight="400" font-size="41" transform="matrix(1 0 0 1 3368.27 2077)">V</text></g><g clip-path="url(#clip34)"><text fill="#595959" font-family="Calibri,Calibri_MSFontService,sans-serif" font-weight="400" font-size="41" transform="matrix(1 0 0 1 3417.38 2077)">W</text></g><g clip-path="url(#clip35)"><text fill="#595959" font-family="Calibri,Calibri_MSFontService,sans-serif" font-weight="400" font-size="41" transform="matrix(1 0 0 1 3480.78 2077)">X</text></g><g clip-path="url(#clip36)"><text fill="#595959" font-family="Calibri,Calibri_MSFontService,sans-serif" font-weight="400" font-size="41" transform="matrix(1 0 0 1 3537.2 2077)">Y</text></g><g clip-path="url(#clip37)"><text fill="#595959" font-family="Calibri,Calibri_MSFontService,sans-serif" font-weight="400" font-size="41" transform="matrix(1 0 0 1 3593.35 2077)">Z</text></g><g clip-path="url(#clip38)"><text fill="#595959" font-family="Calibri,Calibri_MSFontService,sans-serif" font-weight="400" font-size="64" transform="matrix(1 0 0 1 2594.52 1250)">Zašifrovaná abeceda</text></g><rect x="2040.5" y="1155.5" width="1641" height="963" stroke="#D9D9D9" stroke-width="3.4375" stroke-linejoin="round" stroke-miterlimit="10" fill="none"/></g></svg>