<svg width="1648" height="973" xmlns="http://www.w3.org/2000/svg" xmlns:xlink="http://www.w3.org/1999/xlink" xml:space="preserve" overflow="hidden"><defs><clipPath id="clip0"><rect x="2045" y="164" width="1648" height="973"/></clipPath><clipPath id="clip1"><rect x="2046" y="164" width="1645" height="971"/></clipPath><clipPath id="clip2"><rect x="2046" y="164" width="1645" height="971"/></clipPath><clipPath id="clip3"><rect x="2187" y="334" width="1457" height="698"/></clipPath><clipPath id="clip4"><rect x="2046" y="164" width="1645" height="971"/></clipPath><clipPath id="clip5"><rect x="2046" y="164" width="1645" height="971"/></clipPath><clipPath id="clip6"><rect x="2046" y="164" width="1645" height="971"/></clipPath><clipPath id="clip7"><rect x="2046" y="164" width="1645" height="971"/></clipPath><clipPath id="clip8"><rect x="2046" y="164" width="1645" height="971"/></clipPath><clipPath id="clip9"><rect x="2046" y="164" width="1645" height="971"/></clipPath><clipPath id="clip10"><rect x="2046" y="164" width="1645" height="971"/></clipPath><clipPath id="clip11"><rect x="2046" y="164" width="1645" height="971"/></clipPath><clipPath id="clip12"><rect x="2046" y="164" width="1645" height="971"/></clipPath><clipPath id="clip13"><rect x="2046" y="164" width="1645" height="971"/></clipPath><clipPath id="clip14"><rect x="2046" y="164" width="1645" height="971"/></clipPath><clipPath id="clip15"><rect x="2046" y="164" width="1645" height="971"/></clipPath><clipPath id="clip16"><rect x="2046" y="164" width="1645" height="971"/></clipPath><clipPath id="clip17"><rect x="2046" y="164" width="1645" height="971"/></clipPath><clipPath id="clip18"><rect x="2046" y="164" width="1645" height="971"/></clipPath><clipPath id="clip19"><rect x="2046" y="164" width="1645" height="971"/></clipPath><clipPath id="clip20"><rect x="2046" y="164" width="1645" height="971"/></clipPath><clipPath id="clip21"><rect x="2046" y="164" width="1645" height="971"/></clipPath><clipPath id="clip22"><rect x="2046" y="164" width="1645" height="971"/></clipPath><clipPath id="clip23"><rect x="2046" y="164" width="1645" height="971"/></clipPath><clipPath id="clip24"><rect x="2046" y="164" width="1645" height="971"/></clipPath><clipPath id="clip25"><rect x="2046" y="164" width="1645" height="971"/></clipPath><clipPath id="clip26"><rect x="2046" y="164" width="1645" height="971"/></clipPath><clipPath id="clip27"><rect x="2046" y="164" width="1645" height="971"/></clipPath><clipPath id="clip28"><rect x="2046" y="164" width="1645" height="971"/></clipPath><clipPath id="clip29"><rect x="2046" y="164" width="1645" height="971"/></clipPath><clipPath id="clip30"><rect x="2046" y="164" width="1645" height="971"/></clipPath><clipPath id="clip31"><rect x="2046" y="164" width="1645" height="971"/></clipPath><clipPath id="clip32"><rect x="2046" y="164" width="1645" height="971"/></clipPath><clipPath id="clip33"><rect x="2046" y="164" width="1645" height="971"/></clipPath><clipPath id="clip34"><rect x="2046" y="164" width="1645" height="971"/></clipPath><clipPath id="clip35"><rect x="2046" y="164" width="1645" height="971"/></clipPath><clipPath id="clip36"><rect x="2046" y="164" width="1645" height="971"/></clipPath><clipPath id="clip37"><rect x="2046" y="164" width="1645" height="971"/></clipPath><clipPath id="clip38"><rect x="2046" y="164" width="1645" height="971"/></clipPath><clipPath id="clip39"><rect x="2046" y="164" width="1645" height="971"/></clipPath><clipPath id="clip40"><rect x="2046" y="164" width="1645" height="971"/></clipPath><clipPath id="clip41"><rect x="2046" y="164" width="1645" height="971"/></clipPath><clipPath id="clip42"><rect x="2046" y="164" width="1645" height="971"/></clipPath></defs><g clip-path="url(#clip0)" transform="translate(-2045 -164)"><rect x="2046" y="165" width="1645" height="970" fill="#FFFFFF"/><g clip-path="url(#clip1)"><path d="M2187.5 959.532 3641.5 959.532M2187.5 889.529 3641.5 889.529M2187.5 820.527 3641.5 820.527M2187.5 751.525 3641.5 751.525M2187.5 681.523 3641.5 681.523M2187.5 612.52 3641.5 612.52M2187.5 542.518 3641.5 542.518M2187.5 473.516 3641.5 473.516M2187.5 403.513 3641.5 403.513M2187.5 334.5 3641.5 334.5" stroke="#D9D9D9" stroke-width="3.4375" stroke-linejoin="round" stroke-miterlimit="10" fill="none"/></g><g clip-path="url(#clip2)"><path d="M2187.5 1028.5 3641.5 1028.5" stroke="#D9D9D9" stroke-width="3.4375" stroke-linejoin="round" stroke-miterlimit="10" fill="none" fill-rule="evenodd"/></g><g clip-path="url(#clip3)"><path d="M2215 875.029 2271.07 1022.03 2327.08 1018.03 2383.08 372 2439.08 762.025 2495.08 834.027 2551.08 902.03 2607.09 464.015 2663.09 854.028 2719.09 888.029 2774.09 1029 2830.09 1029 2886.09 810.027 2942.1 810.027 2998.1 741.024 3054.1 734.024 3110.1 734.024 3166.1 1029 3222.11 851.028 3278.11 577.019 3333.11 704.023 3389.11 875.029 3445.11 707.023 3501.11 813.027 3557.12 906.03 3613 632.021" stroke="#ED7D31" stroke-width="10.3125" stroke-linecap="round" stroke-linejoin="round" stroke-miterlimit="10" fill="none"/></g><g clip-path="url(#clip4)"><path d="M2226.98 874.014C2226.98 880.089 2222.06 885.013 2215.98 885.013 2209.91 885.013 2204.98 880.089 2204.98 874.014 2204.98 867.939 2209.91 863.014 2215.98 863.014 2222.06 863.014 2226.98 867.939 2226.98 874.014Z" stroke="#ED7D31" stroke-width="3.4375" stroke-linejoin="round" stroke-miterlimit="10" fill="#ED7D31"/><path d="M2282.98 1021.01C2282.98 1027.09 2278.06 1032.01 2271.98 1032.01 2265.91 1032.01 2260.98 1027.09 2260.98 1021.01 2260.98 1014.94 2265.91 1010.01 2271.98 1010.01 2278.06 1010.01 2282.98 1014.94 2282.98 1021.01Z" stroke="#ED7D31" stroke-width="3.4375" stroke-linejoin="round" stroke-miterlimit="10" fill="#ED7D31"/><path d="M2338.98 1018.01C2338.98 1024.09 2334.06 1029.01 2327.98 1029.01 2321.91 1029.01 2316.98 1024.09 2316.98 1018.01 2316.98 1011.94 2321.91 1007.01 2327.98 1007.01 2334.06 1007.01 2338.98 1011.94 2338.98 1018.01Z" stroke="#ED7D31" stroke-width="3.4375" stroke-linejoin="round" stroke-miterlimit="10" fill="#ED7D31"/><path d="M2394.98 371.014C2394.98 377.089 2390.06 382.014 2383.98 382.014 2377.91 382.014 2372.98 377.089 2372.98 371.014 2372.98 364.939 2377.91 360.014 2383.98 360.014 2390.06 360.014 2394.98 364.939 2394.98 371.014Z" stroke="#ED7D31" stroke-width="3.4375" stroke-linejoin="round" stroke-miterlimit="10" fill="#ED7D31"/><path d="M2450.98 761.014C2450.98 767.089 2446.06 772.013 2439.98 772.013 2433.91 772.013 2428.98 767.089 2428.98 761.014 2428.98 754.939 2433.91 750.014 2439.98 750.014 2446.06 750.014 2450.98 754.939 2450.98 761.014Z" stroke="#ED7D31" stroke-width="3.4375" stroke-linejoin="round" stroke-miterlimit="10" fill="#ED7D31"/><path d="M2506.98 833.014C2506.98 839.089 2502.06 844.014 2495.98 844.014 2489.91 844.014 2484.98 839.089 2484.98 833.014 2484.98 826.939 2489.91 822.014 2495.98 822.014 2502.06 822.014 2506.98 826.939 2506.98 833.014Z" stroke="#ED7D31" stroke-width="3.4375" stroke-linejoin="round" stroke-miterlimit="10" fill="#ED7D31"/><path d="M2561.98 902.014C2561.98 908.089 2557.06 913.014 2550.98 913.014 2544.91 913.014 2539.98 908.089 2539.98 902.014 2539.98 895.939 2544.91 891.014 2550.98 891.014 2557.06 891.014 2561.98 895.939 2561.98 902.014Z" stroke="#ED7D31" stroke-width="3.4375" stroke-linejoin="round" stroke-miterlimit="10" fill="#ED7D31"/><path d="M2617.98 464.014C2617.98 470.089 2613.06 475.013 2606.98 475.013 2600.91 475.013 2595.98 470.089 2595.98 464.014 2595.98 457.939 2600.91 453.014 2606.98 453.014 2613.06 453.014 2617.98 457.939 2617.98 464.014Z" stroke="#ED7D31" stroke-width="3.4375" stroke-linejoin="round" stroke-miterlimit="10" fill="#ED7D31"/><path d="M2673.98 854.014C2673.98 860.089 2669.06 865.014 2662.98 865.014 2656.91 865.014 2651.98 860.089 2651.98 854.014 2651.98 847.939 2656.91 843.014 2662.98 843.014 2669.06 843.014 2673.98 847.939 2673.98 854.014Z" stroke="#ED7D31" stroke-width="3.4375" stroke-linejoin="round" stroke-miterlimit="10" fill="#ED7D31"/><path d="M2729.98 888.014C2729.98 894.089 2725.06 899.014 2718.98 899.014 2712.91 899.014 2707.98 894.089 2707.98 888.014 2707.98 881.939 2712.91 877.014 2718.98 877.014 2725.06 877.014 2729.98 881.939 2729.98 888.014Z" stroke="#ED7D31" stroke-width="3.4375" stroke-linejoin="round" stroke-miterlimit="10" fill="#ED7D31"/><path d="M2785.98 1028.01C2785.98 1034.09 2781.06 1039.01 2774.98 1039.01 2768.91 1039.01 2763.98 1034.09 2763.98 1028.01 2763.98 1021.94 2768.91 1017.01 2774.98 1017.01 2781.06 1017.01 2785.98 1021.94 2785.98 1028.01Z" stroke="#ED7D31" stroke-width="3.4375" stroke-linejoin="round" stroke-miterlimit="10" fill="#ED7D31"/><path d="M2841.98 1028.01C2841.98 1034.09 2837.06 1039.01 2830.98 1039.01 2824.91 1039.01 2819.98 1034.09 2819.98 1028.01 2819.98 1021.94 2824.91 1017.01 2830.98 1017.01 2837.06 1017.01 2841.98 1021.94 2841.98 1028.01Z" stroke="#ED7D31" stroke-width="3.4375" stroke-linejoin="round" stroke-miterlimit="10" fill="#ED7D31"/><path d="M2897.98 809.014C2897.98 815.089 2893.06 820.014 2886.98 820.014 2880.91 820.014 2875.98 815.089 2875.98 809.014 2875.98 802.939 2880.91 798.014 2886.98 798.014 2893.06 798.014 2897.98 802.939 2897.98 809.014Z" stroke="#ED7D31" stroke-width="3.4375" stroke-linejoin="round" stroke-miterlimit="10" fill="#ED7D31"/><path d="M2953.98 809.014C2953.98 815.089 2949.06 820.014 2942.98 820.014 2936.91 820.014 2931.98 815.089 2931.98 809.014 2931.98 802.939 2936.91 798.014 2942.98 798.014 2949.06 798.014 2953.98 802.939 2953.98 809.014Z" stroke="#ED7D31" stroke-width="3.4375" stroke-linejoin="round" stroke-miterlimit="10" fill="#ED7D31"/><path d="M3009.98 741.014C3009.98 747.089 3005.06 752.013 2998.98 752.013 2992.91 752.013 2987.98 747.089 2987.98 741.014 2987.98 734.939 2992.91 730.014 2998.98 730.014 3005.06 730.014 3009.98 734.939 3009.98 741.014Z" stroke="#ED7D31" stroke-width="3.4375" stroke-linejoin="round" stroke-miterlimit="10" fill="#ED7D31"/><path d="M3065.98 734.014C3065.98 740.089 3061.06 745.014 3054.98 745.014 3048.91 745.014 3043.98 740.089 3043.98 734.014 3043.98 727.939 3048.91 723.014 3054.98 723.014 3061.06 723.014 3065.98 727.939 3065.98 734.014Z" stroke="#ED7D31" stroke-width="3.4375" stroke-linejoin="round" stroke-miterlimit="10" fill="#ED7D31"/><path d="M3120.98 734.014C3120.98 740.089 3116.06 745.014 3109.98 745.014 3103.91 745.014 3098.98 740.089 3098.98 734.014 3098.98 727.939 3103.91 723.014 3109.98 723.014 3116.06 723.014 3120.98 727.939 3120.98 734.014Z" stroke="#ED7D31" stroke-width="3.4375" stroke-linejoin="round" stroke-miterlimit="10" fill="#ED7D31"/><path d="M3176.98 1028.01C3176.98 1034.09 3172.06 1039.01 3165.98 1039.01 3159.91 1039.01 3154.98 1034.09 3154.98 1028.01 3154.98 1021.94 3159.91 1017.01 3165.98 1017.01 3172.06 1017.01 3176.98 1021.94 3176.98 1028.01Z" stroke="#ED7D31" stroke-width="3.4375" stroke-linejoin="round" stroke-miterlimit="10" fill="#ED7D31"/><path d="M3232.98 850.014C3232.98 856.089 3228.06 861.013 3221.98 861.013 3215.91 861.013 3210.98 856.089 3210.98 850.014 3210.98 843.939 3215.91 839.014 3221.98 839.014 3228.06 839.014 3232.98 843.939 3232.98 850.014Z" stroke="#ED7D31" stroke-width="3.4375" stroke-linejoin="round" stroke-miterlimit="10" fill="#ED7D31"/><path d="M3288.98 577.014C3288.98 583.089 3284.06 588.013 3277.98 588.013 3271.91 588.013 3266.98 583.089 3266.98 577.014 3266.98 570.939 3271.91 566.014 3277.98 566.014 3284.06 566.014 3288.98 570.939 3288.98 577.014Z" stroke="#ED7D31" stroke-width="3.4375" stroke-linejoin="round" stroke-miterlimit="10" fill="#ED7D31"/><path d="M3344.98 703.014C3344.98 709.089 3340.06 714.014 3333.98 714.014 3327.91 714.014 3322.98 709.089 3322.98 703.014 3322.98 696.939 3327.91 692.014 3333.98 692.014 3340.06 692.014 3344.98 696.939 3344.98 703.014Z" stroke="#ED7D31" stroke-width="3.4375" stroke-linejoin="round" stroke-miterlimit="10" fill="#ED7D31"/><path d="M3400.98 874.014C3400.98 880.089 3396.06 885.013 3389.98 885.013 3383.91 885.013 3378.98 880.089 3378.98 874.014 3378.98 867.939 3383.91 863.014 3389.98 863.014 3396.06 863.014 3400.98 867.939 3400.98 874.014Z" stroke="#ED7D31" stroke-width="3.4375" stroke-linejoin="round" stroke-miterlimit="10" fill="#ED7D31"/><path d="M3456.98 707.014C3456.98 713.089 3452.06 718.013 3445.98 718.013 3439.91 718.013 3434.98 713.089 3434.98 707.014 3434.98 700.939 3439.91 696.014 3445.98 696.014 3452.06 696.014 3456.98 700.939 3456.98 707.014Z" stroke="#ED7D31" stroke-width="3.4375" stroke-linejoin="round" stroke-miterlimit="10" fill="#ED7D31"/><path d="M3512.98 813.014C3512.98 819.089 3508.06 824.014 3501.98 824.014 3495.91 824.014 3490.98 819.089 3490.98 813.014 3490.98 806.939 3495.91 802.014 3501.98 802.014 3508.06 802.014 3512.98 806.939 3512.98 813.014Z" stroke="#ED7D31" stroke-width="3.4375" stroke-linejoin="round" stroke-miterlimit="10" fill="#ED7D31"/><path d="M3568.98 905.014C3568.98 911.089 3564.06 916.013 3557.98 916.013 3551.91 916.013 3546.98 911.089 3546.98 905.014 3546.98 898.939 3551.91 894.014 3557.98 894.014 3564.06 894.014 3568.98 898.939 3568.98 905.014Z" stroke="#ED7D31" stroke-width="3.4375" stroke-linejoin="round" stroke-miterlimit="10" fill="#ED7D31"/><path d="M3624.98 631.014C3624.98 637.089 3620.06 642.013 3613.98 642.013 3607.91 642.013 3602.98 637.089 3602.98 631.014 3602.98 624.939 3607.91 620.014 3613.98 620.014 3620.06 620.014 3624.98 624.939 3624.98 631.014Z" stroke="#ED7D31" stroke-width="3.4375" stroke-linejoin="round" stroke-miterlimit="10" fill="#ED7D31"/></g><g clip-path="url(#clip5)"><text fill="#595959" font-family="Calibri,Calibri_MSFontService,sans-serif" font-weight="400" font-size="41" transform="matrix(1 0 0 1 2128.37 1040)">0</text></g><g clip-path="url(#clip6)"><text fill="#595959" font-family="Calibri,Calibri_MSFontService,sans-serif" font-weight="400" font-size="41" transform="matrix(1 0 0 1 2076.28 971)">0,01</text></g><g clip-path="url(#clip7)"><text fill="#595959" font-family="Calibri,Calibri_MSFontService,sans-serif" font-weight="400" font-size="41" transform="matrix(1 0 0 1 2076.28 901)">0,02</text></g><g clip-path="url(#clip8)"><text fill="#595959" font-family="Calibri,Calibri_MSFontService,sans-serif" font-weight="400" font-size="41" transform="matrix(1 0 0 1 2076.28 832)">0,03</text></g><g clip-path="url(#clip9)"><text fill="#595959" font-family="Calibri,Calibri_MSFontService,sans-serif" font-weight="400" font-size="41" transform="matrix(1 0 0 1 2076.28 763)">0,04</text></g><g clip-path="url(#clip10)"><text fill="#595959" font-family="Calibri,Calibri_MSFontService,sans-serif" font-weight="400" font-size="41" transform="matrix(1 0 0 1 2076.28 693)">0,05</text></g><g clip-path="url(#clip11)"><text fill="#595959" font-family="Calibri,Calibri_MSFontService,sans-serif" font-weight="400" font-size="41" transform="matrix(1 0 0 1 2076.28 624)">0,06</text></g><g clip-path="url(#clip12)"><text fill="#595959" font-family="Calibri,Calibri_MSFontService,sans-serif" font-weight="400" font-size="41" transform="matrix(1 0 0 1 2076.28 554)">0,07</text></g><g clip-path="url(#clip13)"><text fill="#595959" font-family="Calibri,Calibri_MSFontService,sans-serif" font-weight="400" font-size="41" transform="matrix(1 0 0 1 2076.28 485)">0,08</text></g><g clip-path="url(#clip14)"><text fill="#595959" font-family="Calibri,Calibri_MSFontService,sans-serif" font-weight="400" font-size="41" transform="matrix(1 0 0 1 2076.28 415)">0,09</text></g><g clip-path="url(#clip15)"><text fill="#595959" font-family="Calibri,Calibri_MSFontService,sans-serif" font-weight="400" font-size="41" transform="matrix(1 0 0 1 2097.18 346)">0,1</text></g><g clip-path="url(#clip16)"><text fill="#595959" font-family="Calibri,Calibri_MSFontService,sans-serif" font-weight="400" font-size="41" transform="matrix(1 0 0 1 2203.55 1094)">A</text></g><g clip-path="url(#clip17)"><text fill="#595959" font-family="Calibri,Calibri_MSFontService,sans-serif" font-weight="400" font-size="41" transform="matrix(1 0 0 1 2260.17 1094)">B</text></g><g clip-path="url(#clip18)"><text fill="#595959" font-family="Calibri,Calibri_MSFontService,sans-serif" font-weight="400" font-size="41" transform="matrix(1 0 0 1 2316.29 1094)">C</text></g><g clip-path="url(#clip19)"><text fill="#595959" font-family="Calibri,Calibri_MSFontService,sans-serif" font-weight="400" font-size="41" transform="matrix(1 0 0 1 2370.51 1094)">D</text></g><g clip-path="url(#clip20)"><text fill="#595959" font-family="Calibri,Calibri_MSFontService,sans-serif" font-weight="400" font-size="41" transform="matrix(1 0 0 1 2429.03 1094)">E</text></g><g clip-path="url(#clip21)"><text fill="#595959" font-family="Calibri,Calibri_MSFontService,sans-serif" font-weight="400" font-size="41" transform="matrix(1 0 0 1 2485.53 1094)">F</text></g><g clip-path="url(#clip22)"><text fill="#595959" font-family="Calibri,Calibri_MSFontService,sans-serif" font-weight="400" font-size="41" transform="matrix(1 0 0 1 2537.9 1094)">G</text></g><g clip-path="url(#clip23)"><text fill="#595959" font-family="Calibri,Calibri_MSFontService,sans-serif" font-weight="400" font-size="41" transform="matrix(1 0 0 1 2593.97 1094)">H</text></g><g clip-path="url(#clip24)"><text fill="#595959" font-family="Calibri,Calibri_MSFontService,sans-serif" font-weight="400" font-size="41" transform="matrix(1 0 0 1 2657.52 1094)">I</text></g><g clip-path="url(#clip25)"><text fill="#595959" font-family="Calibri,Calibri_MSFontService,sans-serif" font-weight="400" font-size="41" transform="matrix(1 0 0 1 2712.05 1094)">J</text></g><g clip-path="url(#clip26)"><text fill="#595959" font-family="Calibri,Calibri_MSFontService,sans-serif" font-weight="400" font-size="41" transform="matrix(1 0 0 1 2763.82 1094)">K</text></g><g clip-path="url(#clip27)"><text fill="#595959" font-family="Calibri,Calibri_MSFontService,sans-serif" font-weight="400" font-size="41" transform="matrix(1 0 0 1 2821.76 1094)">L</text></g><g clip-path="url(#clip28)"><text fill="#595959" font-family="Calibri,Calibri_MSFontService,sans-serif" font-weight="400" font-size="41" transform="matrix(1 0 0 1 2868.71 1094)">M</text></g><g clip-path="url(#clip29)"><text fill="#595959" font-family="Calibri,Calibri_MSFontService,sans-serif" font-weight="400" font-size="41" transform="matrix(1 0 0 1 2928.93 1094)">N</text></g><g clip-path="url(#clip30)"><text fill="#595959" font-family="Calibri,Calibri_MSFontService,sans-serif" font-weight="400" font-size="41" transform="matrix(1 0 0 1 2984.49 1094)">O</text></g><g clip-path="url(#clip31)"><text fill="#595959" font-family="Calibri,Calibri_MSFontService,sans-serif" font-weight="400" font-size="41" transform="matrix(1 0 0 1 3043.4 1094)">P</text></g><g clip-path="url(#clip32)"><text fill="#595959" font-family="Calibri,Calibri_MSFontService,sans-serif" font-weight="400" font-size="41" transform="matrix(1 0 0 1 3096.08 1094)">Q</text></g><g clip-path="url(#clip33)"><text fill="#595959" font-family="Calibri,Calibri_MSFontService,sans-serif" font-weight="400" font-size="41" transform="matrix(1 0 0 1 3154.67 1094)">R</text></g><g clip-path="url(#clip34)"><text fill="#595959" font-family="Calibri,Calibri_MSFontService,sans-serif" font-weight="400" font-size="41" transform="matrix(1 0 0 1 3212.29 1094)">S</text></g><g clip-path="url(#clip35)"><text fill="#595959" font-family="Calibri,Calibri_MSFontService,sans-serif" font-weight="400" font-size="41" transform="matrix(1 0 0 1 3267.62 1094)">T</text></g><g clip-path="url(#clip36)"><text fill="#595959" font-family="Calibri,Calibri_MSFontService,sans-serif" font-weight="400" font-size="41" transform="matrix(1 0 0 1 3320.34 1094)">U</text></g><g clip-path="url(#clip37)"><text fill="#595959" font-family="Calibri,Calibri_MSFontService,sans-serif" font-weight="400" font-size="41" transform="matrix(1 0 0 1 3377.78 1094)">V</text></g><g clip-path="url(#clip38)"><text fill="#595959" font-family="Calibri,Calibri_MSFontService,sans-serif" font-weight="400" font-size="41" transform="matrix(1 0 0 1 3427.04 1094)">W</text></g><g clip-path="url(#clip39)"><text fill="#595959" font-family="Calibri,Calibri_MSFontService,sans-serif" font-weight="400" font-size="41" transform="matrix(1 0 0 1 3490.59 1094)">X</text></g><g clip-path="url(#clip40)"><text fill="#595959" font-family="Calibri,Calibri_MSFontService,sans-serif" font-weight="400" font-size="41" transform="matrix(1 0 0 1 3547.15 1094)">Y</text></g><g clip-path="url(#clip41)"><text fill="#595959" font-family="Calibri,Calibri_MSFontService,sans-serif" font-weight="400" font-size="41" transform="matrix(1 0 0 1 3603.44 1094)">Z</text></g><g clip-path="url(#clip42)"><text fill="#595959" font-family="Calibri,Calibri_MSFontService,sans-serif" font-weight="400" font-size="64" transform="matrix(1 0 0 1 2651.87 255)">Zašifrovaný text</text></g><rect x="2046.5" y="165.5" width="1645" height="970" stroke="#D9D9D9" stroke-width="3.4375" stroke-linejoin="round" stroke-miterlimit="10" fill="none"/></g></svg>